<svg xmlns="http://www.w3.org/2000/svg" version="1.1" viewBox="0 0 1024 1024" width="64" height="64">
    <path transform="translate(0)" d="m0 0h1024v1024h-1024z" fill="#FDFBF9"/>
    <path transform="translate(257,132)" d="m0 0h346l15 6 13 8 12 11 54 54 7 8 15 15 7 8 12 13 11 11v2l3 1 7 8 13 13 5 9 3 5v205l7 8 7 7 9 11 11 13 7 7 10 13 11 12 9 10 10 14 3 6v16l-4 8-8 8-9 5-6 1h-73v201l-2 7-4 10-7 9-4 5-11 8-9 4-16 4h-83l-21-7-11-7-7-7-6-10-7-21-1-12h-310l-20-6-14-8-11-9-10-14-6-14-3-10-1-7v-566l1-10 3-9 8-16 3-5 5-4 5-6 11-8 5-3z" fill="#92DAF5"/>
    <path transform="translate(257,132)" d="m0 0h346l15 6 13 8 12 11 54 54 7 8 15 15 7 8 12 13 11 11v2l3 1 7 8 13 13 5 9 3 5v205l7 8 7 7 9 11 11 13 7 7 10 13 11 12 9 10 10 14 3 6v16l-4 8-8 8-9 5-6 1h-73v201l-2 7-4 10-7 9-4 5-11 8-9 4-16 4h-83l-21-7-11-7-7-7-6-10-7-21-1-12h-310l-20-6-14-8-11-9-10-14-6-14-3-10-1-7v-566l1-10 3-9 8-16 3-5 5-4 5-6 11-8 5-3zm150 23-147 1-16 7-10 9-6 9-4 9v583l6 12 12 13 12 7 7 3h311l3-1 1-32v-121l-1-6h-67l-9-2-7-5h-2v-2l-6-5-3-5v-21l6-11 6-7v-2l4-2v-2l3-1 11-14 9-10 10-11 9-12 10-10 9-11 7-9 11-11 12-16 9-9 13-17 10-10 11-15 6-6v-2l4-2 4-4v-2l4-2 7-5 11-2h7l11 3 9 6 7 8 14 14 10 13 7 7 1 2h2v2h2l2 4 8 9 4 7 4 3 1-1v-146l-1-6h-73l-39-1-6-3-9-3-8-5h-2v-2l-8-7-9-9-6-12-2-5-1-125-137-1z" fill="#0871B2"/>
    <path transform="translate(667,427)" d="m0 0 9 1 8 6 8 10 8 8 14 16 8 10 14 15 11 14 3 3v2h2l7 8 9 10 8 10 11 12 12 14 7 8v2h2l7 8 9 10 7 9 9 12 1 8-1 1-84 1-5 3-3 1-3 6-1 28-1 170-1 13-4 11-5 8-7 5-7 2h-96l-10-4-5-5-4-5-4-10-1-205-2-9-1-4-4-2-7-3-82-1-1-5 3-6 9-13 11-12 8-10 12-14 11-12 8-10 11-12 11-13 9-11 10-10 9-12 9-10 12-14 8-10 21-21z" fill="#36C676"/>
    <path transform="translate(667,427)" d="m0 0 9 1 8 6 8 10 8 8 5 8 6 7 2 5h2l9 11 9 9 6 9 9 14 6 4 2 5-1 2-5-2v-2l-6-2-4-1 1 7 4 8-1 6h-1l-1 6-2 1h-8l-3-4h-14l-8-1h-10l-6-3-13 3-11-1-2-5-8 2h-9l-1-4-6 1-2 1-18 1v-6l-4-3-6-2-5-12 1-2-9 2-4 1-1 2-1-2 2-5 8-8 1-2h2l2-4 4-5 6-8 18-20 4-6 2-5 23-23z" fill="#67DA6F"/>
    <path transform="translate(305,374)" d="m0 0h280l6 3 6 8 2 5-1 5-5 7-8 5-6 1h-273l-9-5-4-5-1-3v-10l3-7 7-3z" fill="#3697D4"/>
    <path transform="translate(616,167)" d="m0 0 3 1 7 8 8 7 7 7 7 8 84 84 7 8 10 10v3h-98l-11-3-12-6-5-5-5-8-1-2-1-38z" fill="#FE9F4D"/>
    <path transform="translate(306,272)" d="m0 0h201l6 4 5 5 2 5v10l-3 5-12 6-114 1h-77l-8-1-11-7-3-7v-7l3-7 8-6z" fill="#3697D4"/>
    <path transform="translate(305,473)" d="m0 0h185l9 5 5 8v10l-3 5-7 6-5 1h-184l-9-6-4-6v-12l3-5 3-3z" fill="#3697D4"/>
    <path transform="translate(305,572)" d="m0 0h121l7 6 3 7v12l-5 6-8 4-7 1h-106l-7-2-8-5-3-5v-12l3-5 7-6z" fill="#3596D3"/>
    <path transform="translate(407,155)" d="m0 0h48l136 1v6l-2 1-4-1h-41l-91-1-11-1-13 1h-6l-6-1-5 1h-33l-56 1h-38l-17-1-16 4-7 3-4 4h-2v2l-4 4-3 5-4 1 1-5 6-8 9-8 16-7z" fill="#A7E0F6"/>
    <path transform="translate(745,462)" d="m0 0 9 1 1 6v12l-5-5-6-9-1-4z" fill="#A9E0F6"/>
    <path transform="translate(598,463)" d="m0 0h2l-1 4-7 8-3-1 2-5z" fill="#A8E0F6"/>
    <path transform="translate(622,436)" d="m0 0 1 3-7 8-4 1 2-6 6-5z" fill="#A9E0F6"/>
    <path transform="translate(576,490)" d="m0 0 1 3-6 7h-3l1-5 5-4z" fill="#A8E0F6"/>
    <path transform="translate(723,441)" d="m0 0 5 2 4 5-1 3-5-3-3-3z" fill="#A6E0F6"/>
    <path transform="translate(528,546)" d="m0 0 1 3-5 6-4 1 2-6h2v-2z" fill="#A8E0F6"/>
    <path transform="translate(498,580)" d="m0 0h2l-1 4h-2l-2 4h-3l2-4z" fill="#A1DEF6"/>
    <path transform="translate(484,597)" d="m0 0 1 4-4 7h-2l1-6z" fill="#A5DFF6"/>
</svg>