<?xml version="1.0" encoding="UTF-8"?>
<svg version="1.1" xmlns="http://www.w3.org/2000/svg"
     width="24" height="24" viewBox="0 0 91.000000 91.000000">
    <path d="M0 0 C11.34837179 7.57046221 17.73618993 17.20856979 22 30 C22.9160796 39.96820956 23.14851565 50.15725721 18 59 C17.60296875 59.71285156 17.2059375 60.42570312 16.796875 61.16015625 C9.72889216 73.1265196 0.02343831 79.6588539 -13 84 C-22.96820956 84.9160796 -33.15725721 85.14851565 -42 80 C-42.71285156 79.60296875 -43.42570312 79.2059375 -44.16015625 78.796875 C-56.1265196 71.72889216 -62.6588539 62.02343831 -67 49 C-67.9160796 39.03179044 -68.14851565 28.84274279 -63 20 C-62.60296875 19.28714844 -62.2059375 18.57429688 -61.796875 17.83984375 C-55.48547386 7.15440195 -47.54453964 0.11451012 -35.82421875 -4.078125 C-23.73919571 -6.99136855 -10.90501328 -6.22936178 0 0 Z "
          fill="#F3F3F3" transform="translate(68,6)"/>
    <path d="M0 0 C2 2 2 2 2.4375 5.75 C2.320842 9.53795393 1.31995076 11.85777528 -1.35546875 14.6796875 C-4.27919656 17.02700341 -7.56123318 18.54940357 -11 20 C-8.52376818 25.3193128 -6.2241513 29.87887678 -2 34 C1.23374059 34.53895677 2.87910113 34.04029962 6 33 C5.05208357 36.18844618 4.30234667 37.75485405 1.6875 39.875 C-1 41 -1 41 -3.4375 41.125 C-9.823772 38.32127083 -13.54987893 31.26942744 -16 25 C-16 24.34 -16 23.68 -16 23 C-17.98 23 -19.96 23 -22 23 C-23.63377165 27.56035392 -24.72296253 32.12549661 -25.625 36.875 C-25.7590625 37.56335937 -25.893125 38.25171875 -26.03125 38.9609375 C-26.35772223 40.63993755 -26.67936553 42.31987536 -27 44 C-29.97 44.495 -29.97 44.495 -33 45 C-32.45483724 37.59860181 -31.16064572 30.53868123 -29.5 23.3125 C-28.11681774 17.22254612 -26.76331364 11.20192329 -26 5 C-30.461098 6.40205937 -32.77539351 8.68824198 -36 12 C-36.66 12 -37.32 12 -38 12 C-37.74621174 8.27777224 -37.49555168 6.49555168 -34.8125 3.8125 C-23.84779167 -3.25364537 -12.1027127 -5.57799444 0 0 Z "
          fill="#F1F1F1" transform="translate(62,26)"/>
    <path d="M0 0 C2 2 2 2 2.4375 5.75 C2.320842 9.53795393 1.31995076 11.85777528 -1.35546875 14.6796875 C-4.27919656 17.02700341 -7.56123318 18.54940357 -11 20 C-8.52376818 25.3193128 -6.2241513 29.87887678 -2 34 C1.23374059 34.53895677 2.87910113 34.04029962 6 33 C5.05208357 36.18844618 4.30234667 37.75485405 1.6875 39.875 C-1 41 -1 41 -3.4375 41.125 C-9.823772 38.32127083 -13.54987893 31.26942744 -16 25 C-16 24.34 -16 23.68 -16 23 C-17.32 23 -18.64 23 -20 23 C-19.67 21.35 -19.34 19.7 -19 18 C-18.25234375 17.84144531 -17.5046875 17.68289062 -16.734375 17.51953125 C-10.52663077 16.09494013 -10.52663077 16.09494013 -5.3125 12.625 C-3.85280514 9.70561028 -3.32579326 8.202482 -4 5 C-7.10035057 2.00082637 -9.43964749 1.56805275 -13.6875 1.5625 C-22.44369114 1.80750292 -28.32690035 4.84649584 -34.58984375 10.828125 C-36 12 -36 12 -38 12 C-37.74621174 8.27777224 -37.49555168 6.49555168 -34.8125 3.8125 C-23.84779167 -3.25364537 -12.1027127 -5.57799444 0 0 Z "
          fill="#0A0A0A" transform="translate(62,26)"/>
    <path d="M0 0 C-1.7022042 12.77923449 -4.41773612 25.37641858 -7 38 C-9.97 38.495 -9.97 38.495 -13 39 C-12.45902761 31.54854155 -11.12605261 24.45726291 -9.4375 17.1875 C-8.97294851 15.18212206 -8.51313563 13.17563915 -8.05859375 11.16796875 C-7.85548584 10.29422607 -7.65237793 9.4204834 -7.44311523 8.52026367 C-6.9930215 5.96030906 -6.92117941 3.59351732 -7 1 C-4 0 -4 0 0 0 Z "
          fill="#030303" transform="translate(42,32)"/>
</svg>
