<?xml version="1.0" encoding="UTF-8"?>
<svg version="1.1" xmlns="http://www.w3.org/2000/svg"
     width="24" height="24" viewBox="0 0 460.000000 460.000000"
     preserveAspectRatio="xMidYMid meet">

    <g transform="translate(0.000000,460.000000) scale(0.100000,-0.100000)"
       fill="#000000" stroke="none">
        <path d="M2138 4408 c-80 -4 -172 -14 -205 -22 -32 -7 -76 -17 -98 -21 -47 -8
-177 -45 -255 -73 -202 -73 -461 -219 -617 -348 -149 -125 -319 -308 -398
-429 -19 -30 -50 -79 -69 -107 -44 -69 -104 -185 -144 -278 -130 -306 -179
-602 -161 -973 16 -331 132 -694 307 -967 19 -30 47 -73 61 -95 74 -116 236
-294 371 -410 128 -109 324 -236 450 -292 25 -12 68 -31 95 -43 408 -181 962
-214 1410 -85 96 28 173 55 240 85 28 12 70 31 95 43 126 56 322 183 450 292
135 116 297 294 371 410 14 22 42 65 61 95 175 272 291 637 306 964 19 377
-30 669 -160 976 -40 93 -100 209 -144 278 -19 28 -50 77 -69 107 -107 165
-357 414 -522 521 -32 20 -74 47 -93 60 -150 96 -369 193 -550 243 -233 65
-433 84 -732 69z m622 -1097 c52 -11 114 -29 137 -40 23 -12 46 -21 51 -21 4
0 34 -23 66 -52 42 -37 66 -69 88 -117 28 -62 29 -70 26 -176 -3 -104 -6 -115
-41 -188 -25 -51 -56 -95 -92 -130 -60 -58 -93 -87 -99 -87 -2 0 -30 -18 -62
-39 -59 -39 -252 -141 -267 -141 -4 0 -19 -7 -32 -16 -18 -12 -22 -20 -15 -32
5 -10 21 -44 35 -77 31 -71 72 -152 109 -215 14 -25 29 -52 33 -60 4 -8 30
-51 59 -95 62 -95 133 -172 193 -211 89 -58 197 -31 296 72 57 60 69 58 61 -8
-19 -140 -224 -318 -368 -318 -119 0 -210 61 -342 230 -24 30 -51 69 -60 85
-10 17 -30 53 -46 80 -49 85 -115 215 -165 328 -43 96 -51 108 -69 103 -43
-13 -105 -18 -129 -12 -22 5 -24 9 -17 38 11 50 55 130 88 162 42 39 129 59
198 46 44 -9 59 -8 105 10 79 31 178 91 237 145 118 105 169 306 106 418 -36
66 -134 129 -241 156 -249 64 -648 -31 -900 -214 -23 -16 -51 -37 -64 -45 -41
-27 -165 -158 -205 -217 -21 -31 -45 -58 -52 -61 -20 -6 -43 65 -43 134 0 82
31 151 99 219 57 57 58 58 133 107 184 121 423 210 669 248 160 25 379 21 520
-9z m-643 -383 c28 -26 30 -70 8 -161 -17 -72 -42 -201 -61 -307 -7 -41 -20
-109 -28 -150 -22 -105 -44 -212 -62 -300 -8 -41 -23 -118 -33 -170 -28 -145
-51 -258 -66 -330 -22 -103 -26 -136 -26 -213 l0 -73 -62 -24 c-41 -16 -90
-25 -144 -28 l-82 -4 -7 26 c-7 31 1 103 21 191 14 59 31 142 66 325 24 125
47 240 64 320 8 36 26 128 40 205 14 77 32 168 40 203 25 104 65 329 65 365 0
18 -7 42 -15 53 -19 25 -19 30 3 38 178 61 242 69 279 34z"/>
    </g>
</svg>
