<?xml version="1.0" encoding="UTF-8"?>
<svg version="1.1" viewBox="0 0 1024 1024" width="64" height="64" xmlns="http://www.w3.org/2000/svg">
    <path transform="translate(267,144)" d="m0 0h341l15 4 11 6 9 7 5 4v2l4 2 26 26v2l3 1 7 8 17 17 7 8 8 8 7 8 9 9 7 8 35 35 8 13 2 7 1 199 3 7 12 13 9 11 9 10 7 8 14 17 13 14 10 13 5 9 1 4v12l-3 8-9 10-8 4-3 1-13 1-59 1-4 2-1 195-2 11-7 14-8 9-10 8-16 6-13 2h-76l-16-3-14-6-10-8-8-11-5-11-3-12-1-13h-301l-17-2-17-6-11-7-10-8-9-12-4-7-6-23v-575l5-17 6-11 8-10 10-10 10-6 15-5z" fill="#94DAF6"/>
    <path transform="translate(267,144)" d="m0 0h341l15 4 11 6 9 7 5 4v2l4 2 26 26v2l3 1 7 8 17 17 7 8 8 8 7 8 9 9 7 8 35 35 8 13 2 7 1 199 3 7 12 13 9 11 9 10 7 8 14 17 13 14 10 13 5 9 1 4v12l-3 8-9 10-8 4-3 1-13 1-59 1-4 2-1 195-2 11-7 14-8 9-10 8-16 6-13 2h-76l-16-3-14-6-10-8-8-11-5-11-3-12-1-13h-301l-17-2-17-6-11-7-10-8-9-12-4-7-6-23v-575l5-17 6-11 8-10 10-10 10-6 15-5zm121 23-119 1-11 4-10 6-8 8-8 16v581l4 11 9 11 8 7 14 7 6 1 310-1 1-113v-40l-1-6h-68l-7-1-12-9-6-7-1-2v-21l6-11 9-11 8-8 11-14 10-10 13-17 11-11 9-11 7-9 8-8v-2l3-1 12-16 9-9 13-17 10-10 11-15 7-8 7-6v-2l4-2 7-5 11-2h7l11 3 9 6 10 10 1 2h2l2 4 10 11 8 10 9 9 7 8 11 15 2-1v-146l-1-6h-82l-31-1-5-3-7-2-9-5-10-9-10-10-7-14-1-3-1-125-136-1z" fill="#0873B2"/>
    <path transform="translate(675,439)" d="m0 0 9 1 9 7 8 10 9 9 7 8 11 13 7 8 9 10 11 14 7 7 7 8 24 28 11 12 9 11 13 14 9 11 12 15 3 8-1 3-85 1-6 4-4 4-1 4-1 152-1 48-2 13-4 10-7 8-6 3-5 1h-96l-9-3-7-6-5-8-2-7-1-199-1-12-3-6-6-5-6-1-80-1-1-1 1-7 7-11 11-13 12-14 9-11 8-8 11-14 12-13 9-10 11-14 9-9 11-14 11-12 10-12 9-11 22-22z" fill="#48CD72"/>
    <path transform="translate(547,583)" d="m0 0v3l-9 11-9 10-8 10-3 5-5 7-1 5 82 1 7 2 5 5 3 8 1 35 6-8 2-1 1-4h4l1 4 3 1 5 8 3 3 1 6 5 2 5 4 12 1 18-2 3-3 5-1 5 4 7-1 3-4 14-4h3l4 3 1-1 8 1 3 6v2h2v2l4 1 5 11 3-4 2-14 2-46 2-7 4-4 2 1-4 4-1 4-1 152-1 48-2 13-4 10-7 8-6 3-5 1h-96l-9-3-7-6-5-8-2-7-1-199-1-12-3-6-6-5-6-1-80-1-1-1 1-7 7-11 11-13 12-14z" fill="#21BE7C"/>
    <path transform="translate(675,439)" d="m0 0 9 1 9 7 8 10 9 9 7 8 11 13 7 8 9 10 2 7 6 8v2h2l4 6 2 1v2h2l3 6-2 2-5-2v-2l-9-3 6 13v9l1 9h-7l-8-1-5-1v-2l-4-1-24-1-5-2-5 1-3 1-13 1v-2l-8 1-3-3-6 2h-7l-1-1-4 2h-8l-3-3h-7l-12 2-5-2-4-5-3-3-1-11-1-5-7 3-3 1v2l-4 2v2h-2v2h-2v2h-2l-1 2-2-1 1-6 8-9 3-4 2-5 10-10 11-14 11-12 10-12 9-11 22-22z" fill="#66D96D"/>
    <path transform="translate(313,386)" d="m0 0h280l6 3 6 8 2 5-1 5-5 7-8 5-5 1h-275l-10-7-3-6v-10l3-7 7-3z" fill="#3698D5"/>
    <path transform="translate(624,179)" d="m0 0 3 1v2l4 2 18 18 7 8 88 88 7 8 6 6v3h-100l-12-4-8-4-7-6-5-10-1-27-1-81z" fill="#FDA04E"/>
    <path transform="translate(314,284)" d="m0 0h201l6 4 5 4 2 5v11l-4 6-11 5-101 1h-91l-9-2-10-7-2-6v-7l3-7 8-6z" fill="#3698D5"/>
    <path transform="translate(313,485)" d="m0 0h185l9 5 5 8v11l-7 8-3 2-5 1-152 1h-22l-13-2-8-7-2-4v-12l3-6z" fill="#3698D5"/>
    <path transform="translate(381,583)" d="m0 0 54 1 4 5 4 4 1 4v12l-5 6-8 4-6 1h-108l-6-2-8-5-3-5v-12l3-5 7-6 3-1z" fill="#3597D4"/>
    <path transform="translate(598,524)" d="m0 0v3l-9 11-9 10-10 11-4 6-11 12-5 6h-2l2-4 8-8 11-14 12-13 9-10z" fill="#21BE7C"/>
    <path transform="translate(847,627)" d="m0 0 2 2 1 4-1 3h-85v-1l82-1z" fill="#21BE7C"/>
    <path transform="translate(734,247)" d="m0 0 7 6 9 10 5 6-1 2-8-7v-2l-3-1-3-5v-2h-2l-4-5z" fill="#FEFEFE"/>
    <path transform="translate(744,507)" d="m0 0 5 4 4 5-1 2-7-6z" fill="#31C477"/>
    <path transform="translate(732,246)" d="m0 0 2 1z" fill="#FEFEFE"/>
    <path transform="translate(756,272)" d="m0 0" fill="#FEFEFE"/>
    <path transform="translate(755,271)" d="m0 0" fill="#FEFEFE"/>
    <path transform="translate(731,244)" d="m0 0" fill="#FEFEFE"/>
</svg>
