<?xml version="1.0" encoding="UTF-8"?>
<!--
  - Copyright (C) 2025 - 2026 404Setup (https://github.com/404Setup)
  -
  - This program is free software: you can redistribute it and/or modify
  - it under the terms of the GNU Lesser General Public License as
  - published by the Free Software Foundation, either version 3 of the
  - License, or (at your option) any later version.
  -
  - This program is distributed in the hope that it will be useful,
  - but WITHOUT ANY WARRANTY; without even the implied warranty of
  - MERCHANTABILITY or FITNESS FOR A PARTICULAR PURPOSE.  See the
  - GNU Lesser General Public License for more details.
  -
  - You should have received a copy of the GNU Lesser General Public License
  - along with this program.  If not, see <https://www.gnu.org/licenses/>.
  -->

<svg version="1.1" viewBox="0 0 128 128" width="128" height="128" xmlns="http://www.w3.org/2000/svg">
    <defs>
        <linearGradient id="genericGradient" x1="0%" y1="100%" x2="100%" y2="0%">
            <stop offset="0%" stop-color="#10B981"/>
            <stop offset="50%" stop-color="#059669"/>
            <stop offset="100%" stop-color="#06B6D4"/>
        </linearGradient>
        <linearGradient id="grassGradient" x1="0%" y1="0%" x2="100%" y2="100%">
            <stop offset="0%" stop-color="#76C035"/>
            <stop offset="100%" stop-color="#4C8620"/>
        </linearGradient>
        <linearGradient id="grassLeftGradient" x1="0%" y1="0%" x2="0%" y2="100%">
            <stop offset="0%" stop-color="#6AA830"/>
            <stop offset="100%" stop-color="#45781E"/>
        </linearGradient>
        <linearGradient id="grassRightGradient" x1="0%" y1="0%" x2="0%" y2="100%">
            <stop offset="0%" stop-color="#5E962B"/>
            <stop offset="100%" stop-color="#3D6B1B"/>
        </linearGradient>
        <linearGradient id="dirtLeft" x1="0%" y1="0%" x2="100%" y2="100%">
            <stop offset="0%" stop-color="#866043"/>
            <stop offset="100%" stop-color="#593E2B"/>
        </linearGradient>
        <linearGradient id="dirtRight" x1="0%" y1="0%" x2="100%" y2="100%">
            <stop offset="0%" stop-color="#6E4E35"/>
            <stop offset="100%" stop-color="#483120"/>
        </linearGradient>
        <radialGradient id="blockShadow" cx="50%" cy="50%" r="50%">
            <stop offset="0%" stop-color="#000000" stop-opacity="0.6"/>
            <stop offset="100%" stop-color="#000000" stop-opacity="0"/>
        </radialGradient>
    </defs>
    <rect x="4" y="4" width="120" height="120" rx="24" fill="#1E1E24"/>
    <rect x="4" y="4" width="120" height="120" rx="24" fill="none" stroke="url(#genericGradient)" stroke-width="3"/>
    <path d="M 85,45 L 35,65 L 53,72 L 42,92 Z M 53,72 L 85,45" fill="none" stroke="#FFFFFF" stroke-width="4.5"
          stroke-linecap="round" stroke-linejoin="round" opacity="0.08"/>
    <ellipse cx="64" cy="114" rx="32" ry="8" fill="url(#blockShadow)"/>
    <path d="M 110,10 L 110,32 L 96,32 L 66,62 L 58,54 L 88,24 L 88,10 Z" fill="url(#genericGradient)"
          filter="drop-shadow(0px 4px 6px rgba(0,0,0,0.3))"/>
    <path d="M 34,72 L 64,87 L 64,117 L 34,102 Z" fill="url(#dirtLeft)"/>
    <path d="M 64,87 L 94,72 L 94,102 L 64,117 Z" fill="url(#dirtRight)"/>
    <path d="M 40,87 L 45,89.5 L 45,94.5 L 40,92 Z" fill="#4E3625" opacity="0.6"/>
    <path d="M 50,102 L 55,104.5 L 55,109.5 L 50,107 Z" fill="#4E3625" opacity="0.6"/>
    <path d="M 80,87 L 85,84.5 L 85,89.5 L 80,92 Z" fill="#3D291A" opacity="0.6"/>
    <path d="M 70,102 L 75,99.5 L 75,104.5 L 70,107 Z" fill="#3D291A" opacity="0.6"/>
    <path d="M 34,72 L 34,80 L 44,85 L 44,91 L 54,96 L 54,90 L 64,95 L 64,87 Z" fill="url(#grassLeftGradient)"/>
    <path d="M 64,87 L 64,99 L 74,94 L 74,88 L 84,83 L 84,87 L 94,82 L 94,72 Z" fill="url(#grassRightGradient)"/>
    <path d="M 64,57 L 94,72 L 64,87 L 34,72 Z" fill="url(#grassGradient)"/>
</svg>
